<?xml version="1.0" standalone="no"?>
<!DOCTYPE svg PUBLIC "-//W3C//DTD SVG 20010904//EN"
 "http://www.w3.org/TR/2001/REC-SVG-20010904/DTD/svg10.dtd">
<svg version="1.0" xmlns="http://www.w3.org/2000/svg"
 width="1475.000000pt" height="241.000000pt" viewBox="0 0 1475.000000 241.000000"
 preserveAspectRatio="xMidYMid meet">

<g transform="translate(0.000000,241.000000) scale(0.100000,-0.100000)"
fill="#404B9B" stroke="none">
<path d="M150 1180 l0 -1110 303 0 303 0 0 1110 0 1110 -303 0 -303 0 0 -1110z
m500 0 l0 -1000 -195 0 -195 0 0 1000 0 1000 195 0 195 0 0 -1000z"/>
<path d="M1035 2030 l0 -260 100 0 c85 0 108 -4 145 -22 83 -42 113 -131 74
-214 -28 -59 -82 -82 -209 -90 l-110 -7 0 -243 0 -244 106 0 c66 0 125 -6 157
-15 171 -51 191 -240 34 -313 -50 -23 -73 -27 -177 -30 l-120 -4 1 -256 1
-257 174 1 c116 0 205 6 269 18 303 54 506 199 590 421 30 82 38 243 16 337
-34 147 -134 289 -257 364 l-59 37 50 35 c160 112 242 340 195 540 -23 95 -60
160 -139 237 -83 82 -211 152 -337 184 -91 23 -265 41 -404 41 l-100 0 0 -260z
m430 125 c163 -34 308 -116 380 -212 120 -164 92 -407 -64 -551 -34 -31 -146
-92 -170 -92 -12 0 -15 -78 -3 -97 4 -6 38 -23 75 -37 117 -44 193 -109 251
-217 39 -71 56 -141 56 -234 0 -142 -41 -244 -137 -337 -60 -59 -172 -124
-258 -152 -83 -26 -233 -46 -347 -46 l-108 0 0 150 0 149 33 5 c17 3 55 7 82
10 118 11 224 76 265 163 31 66 32 171 3 229 -27 51 -92 110 -149 134 -36 16
-170 40 -221 40 -10 0 -13 33 -13 140 l0 140 48 0 c109 0 215 57 261 139 15
27 25 66 28 105 13 162 -88 269 -274 291 l-63 7 0 150 0 151 123 -6 c67 -2
158 -12 202 -22z"/>
<path d="M2400 1180 l0 -1100 220 0 220 0 0 1100 0 1100 -220 0 -220 0 0
-1100z m345 -5 l0 -1000 -122 -3 -123 -3 0 1006 0 1006 123 -3 122 -3 0 -1000z"/>
<path d="M3900 1180 l0 -1100 225 0 225 0 -2 1097 -3 1098 -222 3 -223 2 0
-1100z m350 -5 l0 -1006 -127 3 -128 3 -3 1003 -2 1002 130 0 130 0 0 -1005z"/>
<path d="M4717 2273 c-4 -3 -7 -116 -7 -250 l0 -243 860 0 859 0 -2 248 -2
247 -851 3 c-468 1 -854 -1 -857 -5z m1613 -248 l0 -155 -760 0 -760 0 0 155
0 155 760 0 760 0 0 -155z"/>
<path d="M6800 1165 l0 -1095 230 0 230 0 0 1095 0 1095 -230 0 -230 0 0
-1095z m365 0 l0 -1000 -137 -3 -138 -3 0 1006 0 1006 138 -3 137 -3 0 -1000z"/>
<path d="M10482 2228 c3 -7 11 -30 19 -50 l13 -38 209 -2 210 -3 84 -240 c91
-261 90 -257 326 -937 89 -257 165 -464 168 -460 4 4 113 315 244 692 286 823
322 927 330 940 4 6 84 10 203 10 l197 0 18 43 c9 23 17 46 17 50 0 4 -117 7
-260 7 -170 0 -260 -4 -260 -10 0 -9 -142 -420 -265 -770 -18 -52 -75 -214
-125 -360 -51 -146 -95 -268 -99 -272 -6 -7 -154 409 -442 1242 l-57 165 -267
3 c-212 2 -266 0 -263 -10z"/>
<path d="M12720 1985 l0 -255 855 0 855 0 0 255 0 255 -855 0 -855 0 0 -255z
m1615 5 l0 -155 -762 -3 -763 -2 0 153 c0 85 3 157 7 160 3 4 347 6 762 5
l756 -3 0 -155z"/>
<path d="M9275 2048 c-7 -18 -85 -199 -173 -403 -88 -203 -173 -403 -190 -443
l-32 -73 47 -20 c25 -11 47 -18 49 -16 7 7 424 972 424 981 0 3 -25 6 -56 6
-53 0 -56 -1 -69 -32z"/>
<path d="M9955 2028 c12 -29 52 -123 88 -208 36 -85 108 -256 160 -380 53
-124 105 -250 117 -280 12 -30 25 -58 28 -62 4 -4 28 3 54 15 l46 22 -70 165
c-38 91 -110 262 -160 380 -50 118 -109 257 -131 308 l-40 92 -58 0 -58 0 24
-52z"/>
<path d="M9517 1458 c-75 -189 -161 -406 -191 -483 l-55 -140 190 -3 c104 -1
274 -1 378 0 l189 3 -92 240 c-166 433 -278 720 -281 723 -1 2 -64 -151 -138
-340z m254 -248 c50 -129 93 -243 96 -252 5 -17 -9 -18 -188 -19 -107 0 -204
-2 -217 -3 -13 -2 -25 1 -28 5 -2 4 22 74 55 156 33 81 80 201 105 266 25 66
49 124 53 130 8 14 12 5 124 -283z"/>
<path d="M5170 1170 l0 -230 620 0 620 0 0 230 0 230 -620 0 -620 0 0 -230z
m1145 0 l-1 -135 -514 -3 c-283 -1 -519 0 -525 2 -6 2 -9 55 -7 140 l3 136
522 -2 522 -3 0 -135z"/>
<path d="M12720 1130 l0 -230 620 0 620 0 0 230 0 230 -620 0 -620 0 0 -230z
m1140 5 l0 -135 -525 0 -525 0 0 135 0 135 525 0 525 0 0 -135z"/>
<path d="M2980 1175 l0 -165 390 0 391 0 -1 165 -2 165 -389 0 -389 0 0 -165z
m690 -1 l0 -84 -302 2 -303 3 -3 82 -3 83 298 2 c164 2 301 2 306 0 4 -2 7
-41 7 -88z"/>
<path d="M10763 1224 c-18 -8 -33 -18 -33 -23 0 -5 34 -96 76 -202 90 -230
193 -496 259 -669 26 -69 52 -131 58 -137 12 -17 107 -17 107 -1 0 6 -61 170
-137 362 -196 505 -263 678 -263 682 0 8 -37 2 -67 -12z"/>
<path d="M12110 1103 c-23 -60 -111 -284 -196 -499 -84 -215 -154 -397 -156
-405 -2 -11 10 -14 52 -14 l55 0 91 230 c94 237 278 707 289 737 5 12 -5 21
-41 37 -25 12 -48 21 -49 21 -2 0 -22 -48 -45 -107z"/>
<path d="M4710 320 l0 -250 859 0 860 0 0 250 0 250 -859 0 -860 0 0 -250z
m1620 0 l0 -150 -760 0 -760 0 0 150 0 150 760 0 760 0 0 -150z"/>
<path d="M9078 338 l-75 -193 -187 -3 -187 -2 -19 -46 c-11 -25 -20 -50 -20
-54 0 -10 451 -13 474 -4 7 3 46 90 87 195 l74 189 425 0 425 0 69 -180 c38
-99 73 -185 77 -192 6 -10 69 -13 259 -15 137 0 250 2 250 7 0 4 -9 28 -20 54
l-21 46 -197 2 -196 3 -75 193 -74 192 -497 0 -497 0 -75 -192z"/>
<path d="M12720 285 l0 -245 855 0 855 0 0 245 0 245 -855 0 -855 0 0 -245z
m1615 0 l0 -150 -760 0 -760 0 -3 140 c-1 76 0 145 2 152 4 11 148 13 763 11
l758 -3 0 -150z"/>
<path d="M7440 285 l0 -225 420 0 420 0 0 225 0 225 -420 0 -420 0 0 -225z
m760 6 c0 -122 -2 -140 -17 -143 -9 -2 -162 -2 -340 0 l-323 3 0 139 0 140
340 0 340 0 0 -139z"/>
</g>
</svg>
