<?xml version="1.0" standalone="no"?>
<!DOCTYPE svg PUBLIC "-//W3C//DTD SVG 20010904//EN"
 "http://www.w3.org/TR/2001/REC-SVG-20010904/DTD/svg10.dtd">
<svg version="1.0" xmlns="http://www.w3.org/2000/svg"
 width="1441.000000pt" height="250.000000pt" viewBox="0 0 1441.000000 250.000000"
 preserveAspectRatio="xMidYMid meet">

<g transform="translate(0.000000,250.000000) scale(0.100000,-0.100000)"
fill="#404B9B" stroke="none">
<path d="M130 1295 l0 -1105 285 0 285 0 0 1040 0 1040 -55 0 -55 0 0 -985 0
-985 -175 0 -175 0 0 995 0 995 230 0 230 0 0 55 0 55 -285 0 -285 0 0 -1105z"/>
<path d="M990 2135 l0 -265 64 0 c214 0 320 -81 334 -255 15 -191 -105 -305
-321 -305 l-77 0 0 -267 0 -266 140 6 c186 9 321 37 435 91 275 131 416 351
432 676 12 247 -43 432 -173 578 -160 179 -413 272 -741 272 l-93 0 0 -265z
m407 120 c257 -65 425 -228 477 -462 20 -92 21 -270 1 -371 -34 -170 -143
-331 -281 -414 -117 -71 -287 -118 -430 -118 l-64 0 0 154 0 154 73 12 c186
31 289 134 317 318 13 84 3 171 -30 247 -40 93 -157 175 -273 191 -96 13 -87
-6 -87 170 l0 157 103 -8 c56 -4 144 -17 194 -30z"/>
<path d="M2160 1273 l0 -1078 272 2 273 2 3 1076 2 1075 -275 0 -275 0 0
-1077z m440 2 l0 -975 -167 2 -168 3 -3 960 c-1 528 0 966 3 973 3 9 47 12
170 12 l165 0 0 -975z"/>
<path d="M2905 2096 l0 -253 155 -6 c216 -7 292 -36 343 -130 19 -35 22 -58
22 -142 0 -138 -29 -191 -135 -246 -41 -22 -59 -24 -215 -27 l-170 -4 0 -254
0 -254 80 -1 c44 -1 87 -1 95 0 26 2 34 -10 99 -134 35 -66 102 -193 149 -282
l86 -163 358 -2 c197 -2 358 -1 358 2 0 3 -23 41 -51 85 -44 67 -254 398 -360
566 -29 46 -36 69 -21 69 5 0 32 18 62 40 125 93 216 243 251 415 17 82 20
125 16 240 -5 157 -20 224 -72 330 -103 210 -315 347 -605 391 -55 8 -169 14
-270 14 l-175 0 0 -254z m415 140 c415 -63 628 -310 607 -701 -9 -158 -45
-272 -122 -381 -51 -71 -107 -119 -199 -169 -37 -21 -65 -43 -63 -49 3 -6 93
-150 201 -319 108 -170 196 -310 196 -313 0 -2 -103 -4 -229 -4 l-230 0 -55
103 c-83 156 -183 345 -219 415 l-31 62 -83 0 -84 0 3 151 3 151 110 4 c171 6
262 42 335 135 53 67 74 141 73 254 -2 235 -133 353 -405 363 l-118 4 0 154 0
154 108 0 c59 0 150 -7 202 -14z"/>
<path d="M10148 2080 l3 -250 829 0 830 0 0 250 0 250 -832 0 -833 0 3 -250z
m1570 -2 l-3 -153 -735 0 -735 0 -3 153 -3 152 741 0 741 0 -3 -152z"/>
<path d="M12120 1255 l0 -1075 257 0 258 0 0 1075 0 1075 -257 0 -257 0 -1
-1075z m400 0 l0 -975 -145 0 -145 0 0 975 0 975 145 0 145 0 0 -975z"/>
<path d="M13417 2284 c-22 -24 -146 -166 -278 -316 l-239 -273 0 -329 0 -329
28 -43 c15 -24 30 -44 33 -44 3 0 122 -173 264 -385 l259 -385 373 0 c205 0
373 2 373 5 0 5 -487 726 -737 1093 -46 68 -87 130 -90 137 -5 16 1 24 187
231 69 77 221 248 339 379 118 132 228 255 244 273 l31 32 -375 -1 -374 -1
-38 -44z m543 -61 c-1 -5 -18 -27 -38 -49 -20 -23 -109 -122 -197 -220 -88
-99 -204 -228 -259 -289 -109 -120 -162 -180 -188 -211 -17 -19 -16 -22 20
-74 21 -30 114 -167 207 -305 354 -524 400 -593 462 -682 34 -50 63 -96 63
-102 0 -8 -77 -11 -243 -11 l-244 0 -271 404 -272 405 0 281 0 282 177 202
c97 110 213 240 256 289 l79 87 224 0 c123 0 224 -3 224 -7z"/>
<path d="M8200 2060 l0 -250 825 0 824 0 3 250 3 250 -827 0 -828 0 0 -250z
m1558 2 l3 -152 -733 2 -733 3 -3 140 c-1 76 0 145 2 152 4 11 142 13 733 11
l728 -3 3 -153z"/>
<path d="M6260 2050 l0 -250 830 0 830 0 0 250 0 250 -830 0 -830 0 0 -250z
m1558 0 l-3 -151 -725 0 -725 0 -3 151 -3 150 731 0 731 0 -3 -150z"/>
<path d="M4882 2058 c-39 -90 -127 -293 -196 -453 -69 -159 -126 -294 -126
-300 0 -15 88 -57 95 -45 3 4 39 86 79 182 41 95 127 295 191 443 65 149 124
285 131 303 l14 32 -59 0 -59 0 -70 -162z"/>
<path d="M5644 2203 c71 -183 383 -903 393 -903 7 0 29 8 48 17 28 13 35 22
32 38 -3 11 -85 210 -184 442 l-178 423 -59 0 c-50 0 -57 -2 -52 -17z"/>
<path d="M5240 1733 c-51 -131 -137 -350 -192 -487 -54 -137 -97 -251 -95
-253 2 -2 175 -2 384 -1 l380 3 -139 360 c-199 518 -231 599 -238 608 -4 4
-49 -99 -100 -230z m213 -353 l105 -275 -220 -3 c-122 -1 -223 -1 -224 1 -2 2
38 111 90 243 131 332 128 326 137 317 4 -4 54 -132 112 -283z"/>
<path d="M6850 880 l0 -689 223 -3 c123 -2 231 -2 240 0 16 3 17 59 17 693 l0
689 -240 0 -240 0 0 -690z m378 -2 l2 -598 -140 0 -140 0 0 593 c0 327 3 597
7 601 4 3 66 5 137 4 l131 -3 3 -597z"/>
<path d="M10150 1248 l0 -228 600 0 600 0 0 228 0 227 -600 0 -600 0 0 -227z
m1100 2 l0 -130 -505 0 -505 0 0 130 0 130 505 0 505 0 0 -130z"/>
<path d="M8660 1235 l0 -225 600 0 600 0 0 225 0 225 -600 0 -600 0 0 -225z
m1108 3 l3 -128 -511 0 -510 0 0 123 c0 68 3 127 7 130 3 4 232 6 507 5 l501
-3 3 -127z"/>
<path d="M4819 653 c-5 -16 -40 -102 -77 -193 l-67 -165 -188 -3 -188 -2 -20
-46 c-12 -25 -18 -48 -16 -50 3 -3 112 -5 243 -5 183 1 241 4 248 14 4 7 40
94 80 192 l71 180 429 0 430 0 74 -192 75 -193 176 -1 c97 0 188 -2 204 -3 32
-2 33 5 7 61 l-19 42 -146 3 -147 3 -38 95 c-20 52 -54 139 -75 193 l-37 97
-505 0 -504 0 -10 -27z"/>
<path d="M10145 425 l0 -245 833 0 832 0 0 245 0 245 -832 0 -833 0 0 -245z
m1575 0 l0 -145 -740 0 -740 0 0 145 0 145 740 0 740 0 0 -145z"/>
<path d="M8200 420 l0 -240 828 0 827 0 0 240 0 240 -827 0 -828 0 0 -240z
m1555 0 l0 -145 -730 0 -730 0 -3 134 c-1 74 0 141 2 148 4 11 141 13 733 11
l728 -3 0 -145z"/>
</g>
</svg>
